HIERARCHY
ROOT Hips
{
	OFFSET 0.00000 0.00000 0.00000
	CHANNELS 6 Xposition Yposition Zposition Zrotation Yrotation Xrotation 
	JOINT LHipJoint
	{
		OFFSET 0 0 0
		CHANNELS 3 Zrotation Yrotation Xrotation
		JOINT LeftHip
		{
			OFFSET 1.64577 -1.42384 0.94276
			CHANNELS 3 Zrotation Yrotation Xrotation
			JOINT LeftKnee
			{
				OFFSET 2.11538 -5.81197 0.00000
				CHANNELS 3 Zrotation Yrotation Xrotation
				JOINT LeftAnkle
				{
					OFFSET 2.36541 -6.49893 0.00000
					CHANNELS 3 Zrotation Yrotation Xrotation
					JOINT LeftToe
					{
						OFFSET 0.17759 -0.48793 1.73865
						CHANNELS 3 Zrotation Yrotation Xrotation
						End Site
						{
							OFFSET 0.00000 -0.00000 0.91205
						}
					}
				}
			}
		}
	}
	JOINT RHipJoint
	{
		OFFSET 0 0 0
		CHANNELS 3 Zrotation Yrotation Xrotation
		JOINT RightHip
		{
			OFFSET -1.43750 -1.42384 0.94276
			CHANNELS 3 Zrotation Yrotation Xrotation
			JOINT RightKnee
			{
				OFFSET -2.10480 -5.78291 0.00000
				CHANNELS 3 Zrotation Yrotation Xrotation
				JOINT RightAnkle
				{
					OFFSET -2.34880 -6.45329 0.00000
					CHANNELS 3 Zrotation Yrotation Xrotation
					JOINT RightToe
					{
						OFFSET -0.22842 -0.62757 1.80469
						CHANNELS 3 Zrotation Yrotation Xrotation
						End Site
						{
							OFFSET -0.00000 -0.00000 0.95886
						}
					}
				}
			}
		}
	}
	JOINT lowerback
	{
		OFFSET 0 0 0
		CHANNELS 3 Zrotation Yrotation Xrotation
		JOINT Chest
		{
			OFFSET 0.06217 1.93758 -0.49272
			CHANNELS 3 Zrotation Yrotation Xrotation
			JOINT Chest2
			{
				OFFSET -0.03114 2.03621 -0.05830
				CHANNELS 3 Zrotation Yrotation Xrotation
				JOINT lowerneck
				{
					OFFSET 0 0 0
					CHANNELS 3 Zrotation Yrotation Xrotation
					JOINT Neck
					{
						OFFSET 0.04421 1.41010 0.26562
						CHANNELS 3 Zrotation Yrotation Xrotation
						JOINT Head
						{
							OFFSET -0.13407 1.43847 0.06181
							CHANNELS 3 Zrotation Yrotation Xrotation
							End Site
							{
								OFFSET -0.04980 1.45844 -0.00689
							}
						}
					}
				}
				JOINT LeftCollar
				{
					OFFSET 0 0 0
					CHANNELS 3 Zrotation Yrotation Xrotation
					JOINT LeftShoulder
					{
						OFFSET 2.18382 1.47753 -0.35694
CHANNELS 3 Zrotation Xrotation Yrotation
						JOINT LeftElbow
						{
OFFSET 0 -5.054600 0.000000
CHANNELS 3 Zrotation Xrotation Yrotation
							JOINT LeftWrist
							{
OFFSET 0 -3.390130 0.000000
CHANNELS 3 Zrotation Xrotation Yrotation
								JOINT lhand
								{
									OFFSET 0 0 0
CHANNELS 3 Zrotation Xrotation Yrotation
									JOINT LFingers
									{
OFFSET 0 -0.572420 -0.000000
CHANNELS 3 Zrotation Xrotation Yrotation
										End Site
										{
OFFSET 0 -0.461500 -0.000000
										}
									}
								}
								JOINT LThumb
								{
OFFSET 0 0.000000 0.000000
CHANNELS 3 Zrotation Xrotation Yrotation
									End Site
									{
OFFSET 0 -0.468550 0.468550
									}
								}
							}
						}
					}
				}
				JOINT RightCollar
				{
					OFFSET 0 0 0
					CHANNELS 3 Zrotation Yrotation Xrotation
					JOINT RightShoulder
					{
						OFFSET -2.06033 1.72839 -0.47437
CHANNELS 3 Zrotation Xrotation Yrotation
						JOINT RightElbow
						{
OFFSET 0 -5.070100 0.000000
CHANNELS 3 Zrotation Xrotation Yrotation
							JOINT RightWrist
							{
OFFSET 0 -3.149570 -0.000000
CHANNELS 3 Zrotation Xrotation Yrotation
								JOINT rhand
								{
									OFFSET 0 0 0
CHANNELS 3 Zrotation Xrotation Yrotation
									JOINT RFingers
									{
OFFSET 0 -0.718190 -0.000000
CHANNELS 3 Zrotation Xrotation Yrotation
										End Site
										{
OFFSET 0 -0.579020 -0.000000
										}
									}
								}
								JOINT RThumb
								{
OFFSET 0 0.000000 0.000000
CHANNELS 3 Zrotation Xrotation Yrotation
									End Site
									{
OFFSET 0 -0.587860 0.587860
									}
								}
							}
						}
					}
				}
			}
		}
	}
}
MOTION
Frames: 7
Frame Time: 0.008333333333333333
30.290800 15.378300 -0.468800 1.121900 -49.170300 -3.423200 0.000000 0.000000 0.000000 -23.316600 -13.642300 5.575800 1.482300 7.692400 21.783800 1.180500 17.391000 -33.074000 0.017700 0.858800 2.360500 0.000000 0.000000 0.000000 20.085500 19.534300 -1.135800 -2.109200 -9.089900 26.077000 -2.018400 -20.651900 -40.532200 -0.452600 4.316000 -11.967400 -3.207900 0.301100 6.338900 -0.742200 0.181000 4.143100 1.025200 0.013400 0.709300 -3.439700 -9.441800 -3.144400 5.832300 -12.874000 6.009400 1.954400 -6.314200 3.164900 0.000000 -0.000000 0.000000 7.743200 2.810300 -36.246300 16.832400 -26.636300 4.011900 17.060600 2.107200 -3.450200 0.000000 0.000000 0.000000 -7.125000 0.000000 0.000000 -7.799500 33.513500 -2.214000 0.000000 -0.000000 0.000000 -6.876700 3.261000 52.156400 -21.376100 -32.264700 -6.249500 -16.435900 -27.558000 2.782500 0.000000 0.000000 0.000000 7.125000 0.000000 -0.000000 8.231400 32.803000 2.481500
30.291792 15.383189 -0.472838 0.636148 -49.238680 -2.921445 0.000000 0.000000 0.000000 -22.913250 -13.755522 5.213973 1.536363 7.824995 22.183851 1.217163 17.235171 -33.138192 0.025303 1.025386 2.818787 0.000000 0.000000 0.000000 20.478834 19.812788 -0.954526 -2.042508 -8.954028 25.651503 -2.007441 -20.827334 -40.641907 -0.415304 4.136334 -11.460525 -2.899031 0.336453 6.260047 -0.691466 0.246922 4.066812 0.900848 0.053817 0.671484 -3.318440 -9.476702 -3.026965 5.816037 -12.927605 5.986724 1.932597 -6.341381 3.126947 0.000000 0.000000 0.000000 7.864325 3.084123 -36.360044 16.931973 -26.768022 4.056672 17.016454 1.956432 -3.335097 0.000000 0.000000 0.000000 -7.125000 0.000000 0.000000 -7.822689 33.392762 -2.243749 0.000000 0.000000 0.000000 -6.667557 3.253647 52.047868 -21.367645 -32.254972 -6.244993 -15.407289 -27.589434 3.176748 0.000000 0.000000 0.000000 7.125000 0.000000 0.000000 9.104369 33.175431 2.667278
30.291506 15.390728 -0.478658 -0.242480 -49.360344 -2.047326 0.000000 0.000000 0.000000 -22.164590 -13.786413 4.787581 1.574051 7.915968 22.459221 1.254019 17.041271 -33.167225 0.032712 1.168050 3.211387 0.000000 0.000000 0.000000 21.182528 20.315293 -0.861807 -2.001734 -8.869651 25.388449 -2.032863 -21.036688 -40.949222 -0.389708 4.008624 -11.100878 -2.457962 0.355746 6.100406 -0.482794 0.301649 4.019884 0.865680 0.088026 0.709381 -3.337386 -9.477460 -3.089387 5.787386 -12.925024 6.006579 1.923020 -6.339679 3.144246 0.000000 0.000000 0.000000 7.826705 3.242073 -36.326072 16.995707 -26.852069 4.085391 17.017311 1.916332 -3.391892 0.000000 0.000000 0.000000 -7.125000 0.000000 0.000000 -7.828154 33.451641 -2.234097 0.000000 0.000000 0.000000 -6.731066 3.055366 52.270616 -21.365160 -32.252068 -6.243735 -15.938937 -28.102094 3.353102 0.000000 0.000000 0.000000 7.125000 0.000000 0.000000 8.695050 33.376072 2.506962
30.299952 15.390752 -0.479794 -0.187523 -49.286761 -2.069942 0.000000 0.000000 0.000000 -22.207750 -13.867578 4.596100 1.606929 7.994303 22.696647 1.281907 16.966283 -33.259591 0.031412 1.143576 3.143871 0.000000 0.000000 0.000000 21.111746 20.293646 -0.789487 -1.968559 -8.800237 25.172404 -1.981673 -21.232379 -40.896509 -0.398248 4.051860 -11.222690 -2.400698 0.437073 6.203407 -0.549584 0.408783 3.996218 0.758653 0.144447 0.625024 -3.253834 -9.579105 -3.134640 5.827069 -13.074127 6.092999 1.909751 -6.408691 3.186859 0.000000 0.000000 0.000000 8.022719 3.422790 -36.717906 17.167484 -27.077838 4.163336 17.081599 1.821648 -3.607749 0.000000 0.000000 0.000000 -7.125000 0.000000 0.000000 -7.799739 33.677512 -2.182849 0.000000 0.000000 0.000000 -6.661088 3.140468 52.251329 -21.583095 -32.502519 -6.360366 -17.511316 -28.158363 4.602011 0.000000 0.000000 0.000000 7.125000 0.000000 0.000000 7.560891 34.726718 1.923829
30.309916 15.392802 -0.480270 -0.340020 -49.248541 -1.887460 0.000000 0.000000 0.000000 -22.084519 -13.923304 4.371955 1.630356 8.049501 22.864491 1.304940 16.857600 -33.291242 0.036105 1.226483 3.372243 0.000000 0.000000 0.000000 21.147938 20.276882 -0.847061 -1.948440 -8.757822 25.040622 -1.948502 -21.311660 -40.818829 -0.398208 4.051683 -11.222126 -2.178476 0.479364 6.259830 -0.587836 0.474190 3.977040 0.590693 0.182244 0.573541 -3.171524 -9.639031 -3.186945 5.855720 -13.163154 6.132760 1.897028 -6.448663 3.210689 0.000000 0.000000 0.000000 8.218581 3.641605 -37.072761 17.416627 -27.403288 4.277532 17.181660 1.653242 -3.938664 0.000000 0.000000 0.000000 -7.125000 0.000000 0.000000 -7.755364 34.024110 -2.104575 0.000000 0.000000 0.000000 -6.604646 3.184414 52.437481 -21.830761 -32.784863 -6.494114 -18.679880 -28.538180 5.448349 0.000000 0.000000 0.000000 7.125000 0.000000 0.000000 6.694162 35.664147 1.548478
30.322458 15.393836 -0.478910 -0.343053 -49.184298 -1.850643 0.000000 0.000000 0.000000 -22.081235 -13.928372 4.218099 1.638889 8.069533 22.925514 1.308849 16.781225 -33.241144 0.038815 1.271597 3.496494 0.000000 0.000000 0.000000 21.030814 20.118782 -1.005929 -1.947015 -8.754867 25.031436 -1.914153 -21.293954 -40.645217 -0.406112 4.090954 -11.332645 -2.002313 0.513432 6.347844 -0.671178 0.525216 3.985091 0.402949 0.211845 0.533655 -3.075674 -9.686547 -3.255230 5.891801 -13.236239 6.162822 1.884734 -6.480007 3.232830 0.000000 0.000000 0.000000 8.464874 3.893786 -37.530503 17.787690 -27.883649 4.449861 17.333080 1.418067 -4.493186 0.000000 0.000000 0.000000 -7.125000 0.000000 0.000000 -7.695338 34.605226 -1.978696 0.000000 0.000000 0.000000 -6.571490 3.270747 52.760838 -22.203564 -33.205554 -6.697318 -19.892609 -29.189775 6.273761 0.000000 0.000000 0.000000 7.125000 0.000000 0.000000 5.776501 36.596636 1.202543
30.335898 15.393598 -0.476337 -0.197187 -49.102179 -1.968945 0.000000 0.000000 0.000000 -22.196551 -13.887576 4.117142 1.642628 8.078312 22.952237 1.296252 16.730950 -33.118312 0.037865 1.256147 3.453969 0.000000 0.000000 0.000000 20.787771 19.844808 -1.183359 -1.950975 -8.763238 25.057474 -1.876075 -21.213873 -40.395262 -0.418570 4.152577 -11.506363 -1.905747 0.539447 6.458790 -0.787062 0.560716 4.025314 0.227001 0.231832 0.514785 -2.961617 -9.704420 -3.332307 5.923425 -13.269306 6.180379 1.870112 -6.491192 3.248338 0.000000 0.000000 0.000000 8.750962 4.190261 -38.049219 18.286439 -28.521130 4.685873 17.498425 1.127246 -5.181970 0.000000 0.000000 0.000000 -7.125000 0.000000 0.000000 -7.641920 35.327325 -1.829369 0.000000 0.000000 0.000000 -6.569445 3.379401 53.201793 -22.690071 -33.746984 -6.965818 -20.943807 -30.114383 6.985272 0.000000 0.000000 0.000000 7.125000 0.000000 0.000000 4.970146 37.413572 0.933495
